<svg width="53" height="75" viewBox="0 0 53 75" fill="none" xmlns="http://www.w3.org/2000/svg">
<g opacity="0.5">
<mask id="path-1-outside-1_1_449" maskUnits="userSpaceOnUse" x="-6" y="-6" width="65" height="87" fill="black">
<rect fill="white" x="-6" y="-6" width="65" height="87"/>
<path d="M52.4494 63.6167V75H2.05925V65.2862L25.8883 39.737C28.283 37.0725 30.1718 34.7284 31.5547 32.7047C32.9375 30.6472 33.9325 28.809 34.5396 27.1901C35.1805 25.5374 35.5009 23.969 35.5009 22.485C35.5009 20.2589 35.1299 18.3533 34.3879 16.768C33.6458 15.1491 32.5497 13.9011 31.0993 13.0242C29.6828 12.1472 27.9289 11.7088 25.8377 11.7088C23.6117 11.7088 21.6891 12.2484 20.0702 13.3277C18.4849 14.407 17.2707 15.908 16.4275 17.8305C15.618 19.753 15.2133 21.9285 15.2133 24.3569H0.592068C0.592068 19.9722 1.63765 15.9586 3.7288 12.3159C5.81996 8.6395 8.77119 5.722 12.5825 3.56339C16.3938 1.37105 20.9134 0.274876 26.1413 0.274876C31.3017 0.274876 35.6527 1.11808 39.1941 2.8045C42.7693 4.45719 45.4676 6.8519 47.2889 9.98864C49.144 13.0916 50.0715 16.8018 50.0715 21.119C50.0715 23.5474 49.6837 25.9253 48.9079 28.2525C48.1322 30.5461 47.0191 32.8396 45.5688 35.1331C44.1522 37.3929 42.4321 39.6864 40.4084 42.0137C38.3847 44.3409 36.1417 46.7525 33.6796 49.2484L20.8797 63.6167H52.4494Z"/>
</mask>
<path d="M52.4494 63.6167V75H2.05925V65.2862L25.8883 39.737C28.283 37.0725 30.1718 34.7284 31.5547 32.7047C32.9375 30.6472 33.9325 28.809 34.5396 27.1901C35.1805 25.5374 35.5009 23.969 35.5009 22.485C35.5009 20.2589 35.1299 18.3533 34.3879 16.768C33.6458 15.1491 32.5497 13.9011 31.0993 13.0242C29.6828 12.1472 27.9289 11.7088 25.8377 11.7088C23.6117 11.7088 21.6891 12.2484 20.0702 13.3277C18.4849 14.407 17.2707 15.908 16.4275 17.8305C15.618 19.753 15.2133 21.9285 15.2133 24.3569H0.592068C0.592068 19.9722 1.63765 15.9586 3.7288 12.3159C5.81996 8.6395 8.77119 5.722 12.5825 3.56339C16.3938 1.37105 20.9134 0.274876 26.1413 0.274876C31.3017 0.274876 35.6527 1.11808 39.1941 2.8045C42.7693 4.45719 45.4676 6.8519 47.2889 9.98864C49.144 13.0916 50.0715 16.8018 50.0715 21.119C50.0715 23.5474 49.6837 25.9253 48.9079 28.2525C48.1322 30.5461 47.0191 32.8396 45.5688 35.1331C44.1522 37.3929 42.4321 39.6864 40.4084 42.0137C38.3847 44.3409 36.1417 46.7525 33.6796 49.2484L20.8797 63.6167H52.4494Z" fill="url(#paint0_linear_1_449)"/>
<path d="M52.4494 63.6167H58.2057V57.8604H52.4494V63.6167ZM52.4494 75V80.7563H58.2057V75H52.4494ZM2.05925 75H-3.69705V80.7563H2.05925V75ZM2.05925 65.2862L-2.15031 61.3601L-3.69705 63.0185V65.2862H2.05925ZM25.8883 39.737L30.0979 43.6632L30.1341 43.6243L30.1696 43.5848L25.8883 39.737ZM31.5547 32.7047L36.3073 35.9523L36.3198 35.9341L36.3321 35.9157L31.5547 32.7047ZM34.5396 27.1901L29.1727 25.109L29.1611 25.1389L29.1498 25.1689L34.5396 27.1901ZM34.3879 16.768L29.155 19.1664L29.1646 19.1874L29.1744 19.2084L34.3879 16.768ZM31.0993 13.0242L28.0695 17.9186L28.0951 17.9344L28.1209 17.95L31.0993 13.0242ZM20.0702 13.3277L16.8772 8.53821L16.8538 8.55378L16.8306 8.56959L20.0702 13.3277ZM16.4275 17.8305L11.156 15.5184L11.1388 15.5574L11.1223 15.5967L16.4275 17.8305ZM15.2133 24.3569V30.1132H20.9696V24.3569H15.2133ZM0.592068 24.3569H-5.16423V30.1132H0.592068V24.3569ZM3.7288 12.3159L8.72097 15.1818L8.72666 15.1719L8.73231 15.1619L3.7288 12.3159ZM12.5825 3.56339L15.4193 8.57213L15.436 8.56267L15.4527 8.55309L12.5825 3.56339ZM39.1941 2.8045L36.7193 8.00164L36.749 8.01576L36.7788 8.02955L39.1941 2.8045ZM47.2889 9.98864L42.311 12.8791L42.3294 12.9108L42.3482 12.9423L47.2889 9.98864ZM48.9079 28.2525L54.3607 30.0969L54.3648 30.0849L54.3688 30.0728L48.9079 28.2525ZM45.5688 35.1331L40.7036 32.0566L40.6976 32.0662L40.6916 32.0757L45.5688 35.1331ZM33.6796 49.2484L29.5816 45.2059L29.4788 45.3101L29.3814 45.4194L33.6796 49.2484ZM20.8797 63.6167L16.5815 59.7877L8.04253 69.373H20.8797V63.6167ZM46.6931 63.6167V75H58.2057V63.6167H46.6931ZM52.4494 69.2437H2.05925V80.7563H52.4494V69.2437ZM7.81555 75V65.2862H-3.69705V75H7.81555ZM6.26881 69.2124L30.0979 43.6632L21.6788 35.8109L-2.15031 61.3601L6.26881 69.2124ZM30.1696 43.5848C32.6645 40.8088 34.7318 38.258 36.3073 35.9523L26.802 29.457C25.6118 31.1988 23.9015 33.3362 21.607 35.8893L30.1696 43.5848ZM36.3321 35.9157C37.8668 33.6325 39.1136 31.3867 39.9294 29.2113L29.1498 25.1689C28.7514 26.2314 28.0083 27.662 26.7772 29.4936L36.3321 35.9157ZM39.9066 29.2712C40.7559 27.0808 41.2572 24.8045 41.2572 22.485H29.7446C29.7446 23.1336 29.605 23.994 29.1727 25.109L39.9066 29.2712ZM41.2572 22.485C41.2572 19.6372 40.7842 16.8549 39.6013 14.3277L29.1744 19.2084C29.4755 19.8516 29.7446 20.8806 29.7446 22.485H41.2572ZM39.6207 14.3696C38.4235 11.7575 36.5677 9.6039 34.0778 8.09833L28.1209 17.95C28.5316 18.1983 28.8682 18.5406 29.155 19.1664L39.6207 14.3696ZM34.1292 8.1298C31.5965 6.56196 28.7281 5.95248 25.8377 5.95248V17.4651C27.1297 17.4651 27.769 17.7325 28.0695 17.9186L34.1292 8.1298ZM25.8377 5.95248C22.6438 5.95248 19.5729 6.74108 16.8772 8.53821L23.2632 18.1173C23.8054 17.7558 24.5795 17.4651 25.8377 17.4651V5.95248ZM16.8306 8.56959C14.268 10.3143 12.3908 12.703 11.156 15.5184L21.6991 20.1426C22.1507 19.1129 22.7019 18.4998 23.3098 18.0859L16.8306 8.56959ZM11.1223 15.5967C9.97033 18.3326 9.457 21.2857 9.457 24.3569H20.9696C20.9696 22.5712 21.2658 21.1733 21.7327 20.0642L11.1223 15.5967ZM15.2133 18.6006H0.592068V30.1132H15.2133V18.6006ZM6.34837 24.3569C6.34837 20.9319 7.1529 17.9132 8.72097 15.1818L-1.26337 9.45002C-3.87761 14.0039 -5.16423 19.0126 -5.16423 24.3569H6.34837ZM8.73231 15.1619C10.2909 12.4219 12.4785 10.2377 15.4193 8.57213L9.74568 -1.44536C5.0639 1.20627 1.34906 4.8571 -1.27471 9.46986L8.73231 15.1619ZM15.4527 8.55309C18.2389 6.95039 21.7296 6.03118 26.1413 6.03118V-5.48143C20.0971 -5.48143 14.5487 -4.2083 9.71231 -1.42631L15.4527 8.55309ZM26.1413 6.03118C30.7041 6.03118 34.1547 6.78039 36.7193 8.00164L41.669 -2.39264C37.1506 -4.54422 31.8993 -5.48143 26.1413 -5.48143V6.03118ZM36.7788 8.02955C39.3771 9.23066 41.1351 10.854 42.311 12.8791L52.2669 7.09819C49.8001 2.84979 46.1616 -0.316283 41.6095 -2.42054L36.7788 8.02955ZM42.3482 12.9423C43.5742 14.993 44.3152 17.6388 44.3152 21.119H55.8278C55.8278 15.9647 54.7139 11.1903 52.2297 7.03494L42.3482 12.9423ZM44.3152 21.119C44.3152 22.9224 44.0291 24.6858 43.447 26.4322L54.3688 30.0728C55.3382 27.1647 55.8278 24.1725 55.8278 21.119H44.3152ZM43.4551 26.4082C42.842 28.2208 41.9388 30.1033 40.7036 32.0566L50.434 38.2096C52.0995 35.5758 53.4223 32.8714 54.3607 30.0969L43.4551 26.4082ZM40.6916 32.0757C39.4561 34.0465 37.9217 36.1009 36.0646 38.2365L44.7521 45.7909C46.9424 43.272 48.8483 40.7393 50.446 38.1905L40.6916 32.0757ZM36.0646 38.2365C34.1299 40.4615 31.9703 42.7845 29.5816 45.2059L37.7775 53.291C40.3131 50.7206 42.6394 48.2204 44.7521 45.7909L36.0646 38.2365ZM29.3814 45.4194L16.5815 59.7877L25.1778 67.4457L37.9777 53.0774L29.3814 45.4194ZM20.8797 69.373H52.4494V57.8604H20.8797V69.373Z" fill="#FFF7E1" mask="url(#path-1-outside-1_1_449)"/>
</g>
<defs>
<linearGradient id="paint0_linear_1_449" x1="27" y1="16.5" x2="27" y2="108" gradientUnits="userSpaceOnUse">
<stop stop-color="#FFBE2E" stop-opacity="0.76"/>
<stop offset="1" stop-color="#FFBE2E" stop-opacity="0"/>
</linearGradient>
</defs>
</svg>
