<svg width="52" height="77" viewBox="0 0 52 77" fill="none" xmlns="http://www.w3.org/2000/svg">
<g opacity="0.25">
<mask id="path-1-outside-1_1_479" maskUnits="userSpaceOnUse" x="-6" y="-5.5" width="64" height="88" fill="black">
<rect fill="white" x="-6" y="-5.5" width="64" height="88"/>
<path d="M16.984 32.3446H24.7753C27.2712 32.3446 29.3286 31.923 30.9476 31.0798C32.5665 30.2028 33.7639 28.9886 34.5396 27.4371C35.3491 25.8519 35.7539 24.0137 35.7539 21.9225C35.7539 20.0338 35.3828 18.3642 34.6408 16.9139C33.9325 15.4298 32.8364 14.2831 31.3523 13.4736C29.8683 12.6304 27.9963 12.2088 25.7365 12.2088C23.9489 12.2088 22.2963 12.5629 20.7785 13.2712C19.2607 13.9795 18.0465 14.9745 17.1358 16.2562C16.2252 17.5379 15.7698 19.0894 15.7698 20.9107H1.14859C1.14859 16.8633 2.22789 13.3387 4.38651 10.3369C6.57885 7.33504 9.51321 4.99092 13.1896 3.3045C16.866 1.61808 20.9134 0.774876 25.3318 0.774876C30.3236 0.774876 34.6914 1.58436 38.4353 3.20332C42.1791 4.78855 45.0966 7.13267 47.1878 10.2357C49.2789 13.3387 50.3245 17.1837 50.3245 21.7708C50.3245 24.098 49.7848 26.3578 48.7055 28.5502C47.6262 30.7088 46.0747 32.665 44.051 34.4189C42.0611 36.139 39.6326 37.5219 36.7657 38.5675C33.8988 39.5793 30.6777 40.0852 27.1025 40.0852H16.984V32.3446ZM16.984 43.4244V35.8861H27.1025C31.1162 35.8861 34.6408 36.3414 37.6764 37.2521C40.7119 38.1627 43.2584 39.4781 45.3158 41.1983C47.3733 42.8847 48.9248 44.8915 49.9703 47.2188C51.0159 49.5123 51.5387 52.0588 51.5387 54.8583C51.5387 58.2985 50.881 61.3678 49.5656 64.0661C48.2502 66.7306 46.3951 68.9904 44.0004 70.8455C41.6394 72.7005 38.8737 74.1171 35.7033 75.0953C32.5328 76.0397 29.0756 76.5119 25.3318 76.5119C22.2288 76.5119 19.1764 76.0902 16.1746 75.247C13.2065 74.3701 10.5082 73.0716 8.07976 71.3514C5.68505 69.5975 3.76253 67.4052 2.31221 64.7744C0.895623 62.1099 0.187328 58.9563 0.187328 55.3136H14.8086C14.8086 57.2024 15.2808 58.8888 16.2252 60.3728C17.1695 61.8569 18.4681 63.0205 20.1208 63.8637C21.8072 64.7069 23.6791 65.1285 25.7365 65.1285C28.0638 65.1285 30.0538 64.7069 31.7065 63.8637C33.3929 62.9868 34.6745 61.7726 35.5515 60.2211C36.4622 58.6358 36.9175 56.7976 36.9175 54.7065C36.9175 52.0082 36.4284 49.8496 35.4503 48.2306C34.4722 46.578 33.0725 45.3637 31.2511 44.588C29.4298 43.8122 27.2712 43.4244 24.7753 43.4244H16.984Z"/>
</mask>
<path d="M16.984 32.3446H24.7753C27.2712 32.3446 29.3286 31.923 30.9476 31.0798C32.5665 30.2028 33.7639 28.9886 34.5396 27.4371C35.3491 25.8519 35.7539 24.0137 35.7539 21.9225C35.7539 20.0338 35.3828 18.3642 34.6408 16.9139C33.9325 15.4298 32.8364 14.2831 31.3523 13.4736C29.8683 12.6304 27.9963 12.2088 25.7365 12.2088C23.9489 12.2088 22.2963 12.5629 20.7785 13.2712C19.2607 13.9795 18.0465 14.9745 17.1358 16.2562C16.2252 17.5379 15.7698 19.0894 15.7698 20.9107H1.14859C1.14859 16.8633 2.22789 13.3387 4.38651 10.3369C6.57885 7.33504 9.51321 4.99092 13.1896 3.3045C16.866 1.61808 20.9134 0.774876 25.3318 0.774876C30.3236 0.774876 34.6914 1.58436 38.4353 3.20332C42.1791 4.78855 45.0966 7.13267 47.1878 10.2357C49.2789 13.3387 50.3245 17.1837 50.3245 21.7708C50.3245 24.098 49.7848 26.3578 48.7055 28.5502C47.6262 30.7088 46.0747 32.665 44.051 34.4189C42.0611 36.139 39.6326 37.5219 36.7657 38.5675C33.8988 39.5793 30.6777 40.0852 27.1025 40.0852H16.984V32.3446ZM16.984 43.4244V35.8861H27.1025C31.1162 35.8861 34.6408 36.3414 37.6764 37.2521C40.7119 38.1627 43.2584 39.4781 45.3158 41.1983C47.3733 42.8847 48.9248 44.8915 49.9703 47.2188C51.0159 49.5123 51.5387 52.0588 51.5387 54.8583C51.5387 58.2985 50.881 61.3678 49.5656 64.0661C48.2502 66.7306 46.3951 68.9904 44.0004 70.8455C41.6394 72.7005 38.8737 74.1171 35.7033 75.0953C32.5328 76.0397 29.0756 76.5119 25.3318 76.5119C22.2288 76.5119 19.1764 76.0902 16.1746 75.247C13.2065 74.3701 10.5082 73.0716 8.07976 71.3514C5.68505 69.5975 3.76253 67.4052 2.31221 64.7744C0.895623 62.1099 0.187328 58.9563 0.187328 55.3136H14.8086C14.8086 57.2024 15.2808 58.8888 16.2252 60.3728C17.1695 61.8569 18.4681 63.0205 20.1208 63.8637C21.8072 64.7069 23.6791 65.1285 25.7365 65.1285C28.0638 65.1285 30.0538 64.7069 31.7065 63.8637C33.3929 62.9868 34.6745 61.7726 35.5515 60.2211C36.4622 58.6358 36.9175 56.7976 36.9175 54.7065C36.9175 52.0082 36.4284 49.8496 35.4503 48.2306C34.4722 46.578 33.0725 45.3637 31.2511 44.588C29.4298 43.8122 27.2712 43.4244 24.7753 43.4244H16.984Z" fill="url(#paint0_linear_1_479)"/>
<path d="M16.984 32.3446V26.5883H11.2277V32.3446H16.984ZM30.9476 31.0798L33.6066 36.1851L33.6481 36.1635L33.6892 36.1413L30.9476 31.0798ZM34.5396 27.4371L29.413 24.8193L29.402 24.841L29.391 24.8628L34.5396 27.4371ZM34.6408 16.9139L29.4459 19.3933L29.4801 19.465L29.5163 19.5357L34.6408 16.9139ZM31.3523 13.4736L28.5086 18.4784L28.5521 18.5031L28.5959 18.527L31.3523 13.4736ZM15.7698 20.9107V26.667H21.5261V20.9107H15.7698ZM1.14859 20.9107H-4.60772V26.667H1.14859V20.9107ZM4.38651 10.3369L-0.262039 6.94185L-0.274544 6.95898L-0.286923 6.97619L4.38651 10.3369ZM13.1896 3.3045L10.7896 -1.92759L13.1896 3.3045ZM38.4353 3.20332L36.1505 8.48678L36.1706 8.49548L36.1908 8.50402L38.4353 3.20332ZM47.1878 10.2357L51.9613 7.01874L47.1878 10.2357ZM48.7055 28.5502L53.8541 31.1245L53.8621 31.1086L53.8699 31.0926L48.7055 28.5502ZM44.051 34.4189L47.8154 38.7737L47.821 38.7689L44.051 34.4189ZM36.7657 38.5675L38.6815 43.9956L38.7098 43.9856L38.738 43.9753L36.7657 38.5675ZM16.984 40.0852H11.2277V45.8416H16.984V40.0852ZM16.984 43.4244H11.2277V49.1807H16.984V43.4244ZM16.984 35.8861V30.1298H11.2277V35.8861H16.984ZM45.3158 41.1983L41.6236 45.6145L41.6451 45.6324L41.6668 45.6502L45.3158 41.1983ZM49.9703 47.2188L44.7196 49.5778L44.7261 49.5922L44.7326 49.6066L49.9703 47.2188ZM49.5656 64.0661L54.7272 66.6142L54.7335 66.6014L54.7398 66.5885L49.5656 64.0661ZM44.0004 70.8455L40.4753 66.2948L40.4596 66.307L40.4441 66.3192L44.0004 70.8455ZM35.7033 75.0953L37.3466 80.612L37.3734 80.604L37.4002 80.5957L35.7033 75.0953ZM16.1746 75.247L14.5435 80.7674L14.5806 80.7784L14.6179 80.7889L16.1746 75.247ZM8.07976 71.3514L4.67853 75.9954L4.71531 76.0223L4.75252 76.0487L8.07976 71.3514ZM2.31221 64.7744L-2.77044 67.4766L-2.74992 67.5151L-2.72882 67.5534L2.31221 64.7744ZM0.187328 55.3136V49.5573H-5.56897V55.3136H0.187328ZM14.8086 55.3136H20.5649V49.5573H14.8086V55.3136ZM20.1208 63.8637L17.5047 68.9912L17.5255 69.0019L17.5465 69.0123L20.1208 63.8637ZM31.7065 63.8637L34.3225 68.9912L34.3424 68.9811L34.3621 68.9708L31.7065 63.8637ZM35.5515 60.2211L30.5602 57.3537L30.5502 57.3711L30.5403 57.3886L35.5515 60.2211ZM35.4503 48.2306L30.4966 51.1624L30.5099 51.1849L30.5234 51.2073L35.4503 48.2306ZM16.984 38.1009H24.7753V26.5883H16.984V38.1009ZM24.7753 38.1009C27.8738 38.1009 30.9212 37.5838 33.6066 36.1851L28.2885 25.9744C27.7361 26.2622 26.6686 26.5883 24.7753 26.5883V38.1009ZM33.6892 36.1413C36.2792 34.7384 38.351 32.6859 39.6882 30.0114L29.391 24.8628C29.1768 25.2914 28.8539 25.6673 28.2059 26.0183L33.6892 36.1413ZM39.6662 30.055C40.9562 27.5287 41.5102 24.7651 41.5102 21.9225H29.9976C29.9976 23.2623 29.742 24.1751 29.413 24.8193L39.6662 30.055ZM41.5102 21.9225C41.5102 19.2677 40.9842 16.6743 39.7654 14.292L29.5163 19.5357C29.7815 20.0541 29.9976 20.7998 29.9976 21.9225H41.5102ZM39.8358 14.4345C38.5903 11.8249 36.6243 9.79231 34.1087 8.42016L28.5959 18.527C29.0484 18.7738 29.2748 19.0348 29.4459 19.3933L39.8358 14.4345ZM34.196 8.46874C31.6087 6.99872 28.6807 6.45248 25.7365 6.45248V17.9651C27.312 17.9651 28.1278 18.2621 28.5086 18.4784L34.196 8.46874ZM25.7365 6.45248C23.1655 6.45248 20.6748 6.96735 18.3442 8.05496L23.2127 18.4875C23.9177 18.1585 24.7324 17.9651 25.7365 17.9651V6.45248ZM18.3442 8.05496C15.9845 9.15616 13.969 10.775 12.4434 12.9221L21.8282 19.5903C22.124 19.174 22.5369 18.8029 23.2127 18.4875L18.3442 8.05496ZM12.4434 12.9221C10.7354 15.3259 10.0135 18.0901 10.0135 20.9107H21.5261C21.5261 20.0887 21.7149 19.7498 21.8282 19.5903L12.4434 12.9221ZM15.7698 15.1544H1.14859V26.667H15.7698V15.1544ZM6.90489 20.9107C6.90489 17.9492 7.67241 15.627 9.05993 13.6975L-0.286923 6.97619C-3.21663 11.0503 -4.60772 15.7774 -4.60772 20.9107H6.90489ZM9.03505 13.7319C10.5968 11.5934 12.7265 9.84998 15.5896 8.5366L10.7896 -1.92759C6.29997 0.131853 2.56087 3.07664 -0.262039 6.94185L9.03505 13.7319ZM15.5896 8.5366C18.4457 7.22647 21.6644 6.53118 25.3318 6.53118V-4.98143C20.1624 -4.98143 15.2863 -3.9903 10.7896 -1.92759L15.5896 8.5366ZM25.3318 6.53118C29.7091 6.53118 33.2703 7.24126 36.1505 8.48678L40.72 -2.08015C36.1126 -4.07255 30.938 -4.98143 25.3318 -4.98143V6.53118ZM36.1908 8.50402C39.0002 9.69359 41.0004 11.3546 42.4143 13.4526L51.9613 7.01874C49.1928 2.91074 45.358 -0.11649 40.6797 -2.09739L36.1908 8.50402ZM42.4143 13.4526C43.7329 15.4093 44.5682 18.0687 44.5682 21.7708H56.0808C56.0808 16.2988 54.8249 11.2681 51.9613 7.01874L42.4143 13.4526ZM44.5682 21.7708C44.5682 23.1722 44.2511 24.5657 43.5412 26.0077L53.8699 31.0926C55.3186 28.1499 56.0808 25.0239 56.0808 21.7708H44.5682ZM43.5569 25.9759C42.8513 27.3872 41.7957 28.7562 40.281 30.0689L47.821 38.7689C50.3537 36.5739 52.4012 34.0303 53.8541 31.1245L43.5569 25.9759ZM40.2867 30.064C38.9026 31.2605 37.1075 32.3156 34.7934 33.1596L38.738 43.9753C42.1578 42.7281 45.2195 41.0176 47.8154 38.7737L40.2867 30.064ZM34.8499 33.1393C32.696 33.8995 30.1374 34.3289 27.1025 34.3289V45.8416C31.2181 45.8416 35.1016 45.2591 38.6815 43.9956L34.8499 33.1393ZM27.1025 34.3289H16.984V45.8416H27.1025V34.3289ZM22.7403 40.0852V32.3446H11.2277V40.0852H22.7403ZM22.7403 43.4244V35.8861H11.2277V43.4244H22.7403ZM16.984 41.6424H27.1025V30.1298H16.984V41.6424ZM27.1025 41.6424C30.6977 41.6424 33.644 42.0521 36.0223 42.7656L39.3304 31.7385C35.6376 30.6307 31.5347 30.1298 27.1025 30.1298V41.6424ZM36.0223 42.7656C38.4448 43.4924 40.2628 44.4767 41.6236 45.6145L49.008 36.7821C46.2541 34.4796 42.979 32.8331 39.3304 31.7385L36.0223 42.7656ZM41.6668 45.6502C43.0659 46.797 44.0546 48.0976 44.7196 49.5778L55.2211 44.8598C53.7949 41.6855 51.6806 38.9724 48.9649 36.7464L41.6668 45.6502ZM44.7326 49.6066C45.4004 51.0712 45.7824 52.7909 45.7824 54.8583H57.295C57.295 51.3267 56.6315 47.9534 55.2081 44.831L44.7326 49.6066ZM45.7824 54.8583C45.7824 57.5524 45.2714 59.7385 44.3914 61.5437L54.7398 66.5885C56.4906 62.9971 57.295 59.0447 57.295 54.8583H45.7824ZM44.404 61.518C43.4828 63.384 42.1935 64.9638 40.4753 66.2948L47.5256 75.3961C50.5967 73.0171 53.0176 70.0773 54.7272 66.6142L44.404 61.518ZM40.4441 66.3192C38.6933 67.6948 36.5732 68.8029 34.0063 69.5948L37.4002 80.5957C41.1742 79.4314 44.5856 77.7063 47.5568 75.3718L40.4441 66.3192ZM34.06 69.5785C31.4877 70.3447 28.5912 70.7555 25.3318 70.7555V82.2682C29.5601 82.2682 33.5779 81.7346 37.3466 80.612L34.06 69.5785ZM25.3318 70.7555C22.7576 70.7555 20.2289 70.4068 17.7312 69.7052L14.6179 80.7889C18.1239 81.7737 21.7 82.2682 25.3318 82.2682V70.7555ZM17.8056 69.7266C15.4198 69.0217 13.2987 67.9941 11.407 66.6541L4.75252 76.0487C7.71773 78.1491 10.9932 79.7185 14.5435 80.7674L17.8056 69.7266ZM11.481 66.7074C9.77043 65.4546 8.40421 63.9018 7.35324 61.9954L-2.72882 67.5534C-0.879145 70.9086 1.59966 73.7405 4.67853 75.9954L11.481 66.7074ZM7.39486 62.0722C6.50337 60.3954 5.94363 58.2076 5.94363 55.3136H-5.56897C-5.56897 59.7049 -4.71212 63.8243 -2.77044 67.4766L7.39486 62.0722ZM0.187328 61.0699H14.8086V49.5573H0.187328V61.0699ZM9.05226 55.3136C9.05226 58.2129 9.79298 60.987 11.3688 63.4633L21.0815 57.2824C20.7685 56.7906 20.5649 56.1919 20.5649 55.3136H9.05226ZM11.3688 63.4633C12.8954 65.8622 14.989 67.7077 17.5047 68.9912L22.7368 58.7362C21.9472 58.3333 21.4437 57.8516 21.0815 57.2824L11.3688 63.4633ZM17.5465 69.0123C20.1032 70.2907 22.8684 70.8848 25.7365 70.8848V59.3722C24.4898 59.3722 23.5112 59.1232 22.6951 58.7151L17.5465 69.0123ZM25.7365 70.8848C28.7472 70.8848 31.6799 70.3395 34.3225 68.9912L29.0904 58.7362C28.4277 59.0744 27.3804 59.3722 25.7365 59.3722V70.8848ZM34.3621 68.9708C36.9684 67.6155 39.1003 65.6408 40.5627 63.0535L30.5403 57.3886C30.2488 57.9044 29.8173 58.358 29.0508 58.7566L34.3621 68.9708ZM40.5428 63.0884C42.0231 60.5116 42.6738 57.6569 42.6738 54.7065H31.1612C31.1612 55.9384 30.9012 56.7601 30.5602 57.3537L40.5428 63.0884ZM42.6738 54.7065C42.6738 51.3829 42.0818 48.0753 40.3772 45.254L30.5234 51.2073C30.7751 51.6239 31.1612 52.6335 31.1612 54.7065H42.6738ZM40.404 45.2988C38.781 42.5565 36.4191 40.5325 33.5068 39.292L28.9954 49.8839C29.7258 50.195 30.1633 50.5994 30.4966 51.1624L40.404 45.2988ZM33.5068 39.292C30.8124 38.1444 27.8514 37.6681 24.7753 37.6681V49.1807C26.6909 49.1807 28.0472 49.48 28.9954 49.8839L33.5068 39.292ZM24.7753 37.6681H16.984V49.1807H24.7753V37.6681Z" fill="#F3F3F3" mask="url(#path-1-outside-1_1_479)"/>
</g>
<defs>
<linearGradient id="paint0_linear_1_479" x1="27" y1="9" x2="27" y2="77.5" gradientUnits="userSpaceOnUse">
<stop stop-opacity="0.8"/>
<stop offset="1" stop-opacity="0.16"/>
</linearGradient>
</defs>
</svg>
